<svg id="Layer_1" data-name="Layer 1" xmlns="http://www.w3.org/2000/svg" viewBox="0 0 181.08 16.95"><path d="M54.13,98.24a1.24,1.24,0,0,1-.67.24c1.18-1.85,1.61-5.86,1.61-8.72a2,2,0,0,1,.6.17.78.78,0,0,1,.72-.86c.5,0,.6.31.69.6.1-.17.32-.39.51-.39,0,.29-.05.58-.05.94a14.11,14.11,0,0,0,1.8,7.25.4.4,0,0,1-.19,0,.68.68,0,0,1-.38-.1c0,.43,0,1-.65,1a.78.78,0,0,1-.72-.6,1.78,1.78,0,0,1-.43.29,9.73,9.73,0,0,0,.14-1.42A10.48,10.48,0,0,0,57,95.6l-1.18.48a7.11,7.11,0,0,0,.36,2.25,1.26,1.26,0,0,1-.6-.28c-.1.31-.1.88-.84.88A.63.63,0,0,1,54.13,98.24Zm6.32-13.73a9.46,9.46,0,0,1,4.22-1.35c.14,0,.34,0,.34.15-2.93.48-5.14,2.57-7.71,4.32a7.48,7.48,0,0,1-3.19,1.29c-.29,0-.6,0-.6-.14C56.27,88.11,58.12,86,60.45,84.51Zm-4.61,10.2.93-.36a17.66,17.66,0,0,0-.45-2.62A15.21,15.21,0,0,0,55.84,94.71Zm3.6,2.47c.21-.5.36-1.8.36-5.57,0-1.77-.1-2.47-.51-3.17a.93.93,0,0,1,.22,0,1,1,0,0,1,.22,0,1.08,1.08,0,0,1-.08-.34.66.66,0,0,1,.68-.67c.24,0,.36.1.52.34.08-.17.27-.39.41-.39a4.84,4.84,0,0,0-.07.72,8.71,8.71,0,0,0,1.49,3.51V89.12c0-1.32,0-2-.65-2.36.1-.09.31-.09.46-.12,0-.48,0-1,.64-1,.36,0,.48.45.48.45a1,1,0,0,1,.58-.43,4.2,4.2,0,0,0-.36,1.61V93.1c0,1.39.36,1.46.53,1.75a.51.51,0,0,1-.22.05l-.19,0a.85.85,0,0,1-.7.91c-.36,0-.57-.41-.57-.41a1.37,1.37,0,0,1-.46.41,7.44,7.44,0,0,0,.1-1.06c0-1.65-.55-2.13-1.47-3.62v2.16c0,1.7,0,2.66.51,3.36-.07.07-.41.07-.41.1,0,.31-.1.69-.55.69s-.48-.53-.51-.53S59.61,97.18,59.44,97.18Zm5.9-1.85a7,7,0,0,1,3.48-1.1c.27,0,.39.07.39.14-2.55.41-4.35,2.19-6.58,3.68a6.51,6.51,0,0,1-2.78,1c-.27,0-.51,0-.51-.12C61.72,98.33,63.33,96.56,65.34,95.33Zm-.07-2.21a1,1,0,0,1-.6.34,4,4,0,0,0,.43-2.16V87.68a4.15,4.15,0,0,0-.65-2.62.27.27,0,0,1,.2-.07.4.4,0,0,1,.33.17c0-.44.1-1.25.67-1.25a.53.53,0,0,1,.34.14,1.33,1.33,0,0,1,1.34-.91,1.52,1.52,0,0,1,1.3,1,.65.65,0,0,1,.36-.22.22.22,0,0,1,.17.1,7.77,7.77,0,0,0-.46,3.33c0,2.64.22,3.63.48,4.11a.78.78,0,0,1-.24,0,.83.83,0,0,1-.29,0c0,.86-.6,1.82-1.34,1.82a.84.84,0,0,1-.58-.17.91.91,0,0,1-.84.75C65.63,93.87,65.34,93.73,65.27,93.12Zm.91-3.72c0,1.92,0,2.6.53,2.6.74,0,.82-.87.82-2.74V86c0-.89-.1-1.22-.48-1.22-.82,0-.87.91-.87,1.58Z" transform="translate(-53.46 -82.73)"/><path d="M73.19,94.81c-.07-1.23-1.59-2.57-1.59-3.77,0-1.76,2-2.38,2.4-3.51.1-.26.1-.84.27-.84a3.57,3.57,0,0,0,2,.84c1.78.15,2.26.46,2.79,1.25s.24,1.61.62,2.88c.46,1.51,1.39,2.23,1.39,3.24s-.67,1.59-1.7,2.5c-.72.62-.67,1.73-.82,1.73s-.33-.84-2.52-.84a2.62,2.62,0,0,1-2.61-1.78A15.28,15.28,0,0,1,73.19,94.81Zm3-.12c.22.48.5.74.79.74a.78.78,0,0,0,.82-.87,21.3,21.3,0,0,0-1.35-3.88c-.26-.58-.6-.63-.84-.63a.69.69,0,0,0-.67.77A18.68,18.68,0,0,0,76.19,94.69Zm6.41.71a8.13,8.13,0,0,0,.12-1.32A10.35,10.35,0,0,0,82,90.24a11.72,11.72,0,0,0-2.23-3.33A4.18,4.18,0,0,0,81,85.73c.34-.5.53-1.41.62-1.41a3.07,3.07,0,0,0,1.56.48,2.17,2.17,0,0,0,1.92-1.35c.1,0,.39.67,1,1.08s1.06.41,1.06.51-.48.48-.7,1.08a6.06,6.06,0,0,0-.17,1.17c-.16,0-.4-.31-1-.31a1.21,1.21,0,0,0-1.17,1.2c0,.53.21,1.2.69,1.2.77,0,.87-.58,1-.58s.15.34.43.6.48.22.48.34-.28.29-.28.84c0,.29,0,.46-.05.46a5.43,5.43,0,0,0-.55-.12c-.34,0-.48.28-.48.57,0,1.23,1.7,2.45,1.7,2.52a4.16,4.16,0,0,0-1.56,2.84,4.48,4.48,0,0,0-1.25-1.06C83.37,95.38,82.6,95.55,82.6,95.4Z" transform="translate(-53.46 -82.73)"/><path d="M97,88.32V92.4l-.36.08c-.19-1.64-1.08-1.66-1.72-1.66-.12,0-.12.07-.12.26v4.09c0,1.56,0,2,.43,2a11.94,11.94,0,0,1,2.61-.31v.31c-3.93.36-5.21,2.09-7,2.09a1.38,1.38,0,0,1-1.22-1.49c0-.82.4-1.16,1-1.16a.84.84,0,0,1,.91.87c0,.19,0,.29,0,.43s.08.34.32.34c.69-.1.76-1.18.76-2.12V89.55c0-1-.67-1.06-1.29-1.13a1.12,1.12,0,0,1-1-1.22.87.87,0,0,1,.84-.94.67.67,0,0,1,.65.7,1.46,1.46,0,0,1-.41.91,3,3,0,0,0,1.3-.34c3.27-1.82,6.77-4.8,10.44-4.8.41,1.39.75,1.68.75,2a.42.42,0,0,1-.36.41c-.72,0-.6-.65-2.86-.65-1.78,0-5.78,2.09-5.78,3.17v2.73s0,.1,0,.1a2.08,2.08,0,0,0,1.8-2Zm3.94-1.51c1.06,0,2.52.63,2.52,4.23,0,1.94-.46,4.39-3.1,4.39-1.89,0-2.52-2.62-2.52-4C97.81,88.76,98.37,86.81,100.91,86.81ZM104.2,86a2.6,2.6,0,0,0,1.39-.39A3,3,0,0,0,106.84,84H107v1.66s0,0,0,.07A2.87,2.87,0,0,1,109,84.56a1.25,1.25,0,0,1,1.3,1.24c0,.87-.41,1.56-1.37,1.56-.14,0-1.1,0-1.1-.91a5.44,5.44,0,0,1,.12-.69c0-.05,0-.05,0-.05a1.44,1.44,0,0,0-.87,1.15v4.3c0,1,1.16,1,2.26,1.53a3.66,3.66,0,0,1,1.87,3c0,3.17-2.28,3.79-4.27,3.94-2.54,0-4.37-1.44-6.5-1.44a5,5,0,0,0-2.55.62v-.33a7,7,0,0,1,4.73-1.76c1.85,0,3,.48,4.58.48s2.86-1,2.86-2.35c0-1.56-1.3-2.18-2.74-2.18a7.26,7.26,0,0,0-3,.88v-.4a1.7,1.7,0,0,0,.93-1.49V87c0-.53-.43-.75-1-.75Zm-4.73,7c0,.64.12,2,1.1,2s1.08-1.1,1.08-2.32V89.09c0-.81-.09-1.89-1-1.89-1.08,0-1.18,1.32-1.18,2.2Z" transform="translate(-53.46 -82.73)"/><path d="M127.72,92.26c.16,0,.26,0,.26.07s-.22.24-.43.27A5,5,0,0,0,124.26,95c-.41.72-.55,1.87-.67,1.87s-.41-.29-.41-1.1C123.18,93.12,127.09,92.26,127.72,92.26Zm-4.49-3.1a.32.32,0,0,1,.21.08,3.79,3.79,0,0,0,2.62,2,1.9,1.9,0,0,1,.53.09c0,.31-.91.58-1.54.58-1.25,0-1.82-1.59-1.82-2.5Zm1.37-1.56c-.1,0-.12-.07-.12-.16,0-.56,4.29-4.35,11.78-4.35,8.47,0,12.46,4.35,16.59,4.35a8,8,0,0,0,1.41-.32c.07,0,.1,0,.1.15,0,1-1.2,1.32-2,1.32-3.15,0-8.4-4.42-16.18-4.42A19.57,19.57,0,0,0,124.6,87.6Zm.93,8.52c0-1.22.89-2.18,1.44-2.18L127,94a3.74,3.74,0,0,0-.88,2.28,12.74,12.74,0,0,0,.45,2s0,.1,0,.1A4.16,4.16,0,0,1,125.53,96.12Zm4.39-2c.68-.39.89-.6.89-.84a.56.56,0,0,0,0-.17l-1.68-5.28c-.67.21-1.08.38-1.15,2.45l-.51.21-1-2.54a20.72,20.72,0,0,1,6.38-2.16l.67,2.59-.52.14c-.56-.69-.94-1.39-1.68-1.39a1.48,1.48,0,0,0-.51.1l1.73,5.35c.12.29.38.38.75.38a1.86,1.86,0,0,0,.52-.07l.12.65a16.68,16.68,0,0,0-3.81,1.23Zm6.39.81c4.7,0,8.4,3.17,11.3,3.17.44,0,1.23-.12,1.4-.12s.14,0,.14,0c0,.38-.86.89-2.14.89-2.54,0-7-2.86-11.32-2.86-4.95,0-7.09,2-7.57,2-.09,0-.12-.07-.12-.16C128,97.4,131,95,136.31,95Zm1.44-2c.34,0,.7-.05.77-.41l.31-2.52a7,7,0,0,0-1.73-.21h-.24l-.09,2.54c0,.34.26.46.62.55l0,.58a13.07,13.07,0,0,0-2.9,0l-.07-.62a.65.65,0,0,0,.69-.6c0-.79.07-2.74.07-5.47,0-.46-.31-.46-.91-.46l-.07-.69a11.31,11.31,0,0,1,2-.17c.53,0,1.1,0,1.75.07l-.05.65h-.14c-.74,0-.74.29-.77.72l-.07,2a13.08,13.08,0,0,1,2,.22l.31-2.26c0-.55-.26-.5-.72-.64l.07-.65a16.35,16.35,0,0,1,3.75.86l-.17.58a2,2,0,0,0-.46,0c-.28,0-.52.07-.57.31-.65,3.72-.87,4.78-.87,5.14,0,.89.12,1,.58,1.25l-.17.55a16.53,16.53,0,0,0-3-.75Zm9.41,3.6a57.63,57.63,0,0,1-6-2.16l.22-.57a1.3,1.3,0,0,0,.46.09.59.59,0,0,0,.43-.14l.12-.19L144,88.4a.5.5,0,0,0,0-.17c0-.46-.31-.58-.67-.67l-.1,0,.22-.67A44.37,44.37,0,0,1,150,89.55l-1,2.54-.62-.26a2.27,2.27,0,0,0,.17-1,2.16,2.16,0,0,0-1.9-2.08c-.31,0-.58,0-.67.09a18.64,18.64,0,0,0-.75,2.07,1.81,1.81,0,0,0,.87.26c.5,0,.67-.22.91-.67l.6.26-1.06,3-.6-.22c0-.22.08-.43.08-.77s-.63-.94-1.11-1c0,0-.55,1.51-.81,2.42,0,.6,1,.91,1.53.91a2.31,2.31,0,0,0,2.16-1.73l.65.27Zm3.17.41c0-1.54-.68-1.75-.68-2.28a2.27,2.27,0,0,1,1.68,1.85,1.69,1.69,0,0,1-1.27,1.85C150.06,97.93,150.33,97.45,150.33,96.94Zm2-2.76a4.69,4.69,0,0,0,3-1.06s0,0,0,.1a2.48,2.48,0,0,1-2.57,1.7A4.19,4.19,0,0,1,150,93.73,20.74,20.74,0,0,0,152.32,94.18Zm.05-4.42a1.55,1.55,0,0,1,.45,1.18,1.59,1.59,0,0,1-1.65,1.75c-.29,0-1.06-.09-1.06-.21C152.29,91.8,152.05,89.76,152.37,89.76Z" transform="translate(-53.46 -82.73)"/><path d="M159.4,90.36c2.06,0,3.55,3.77,3.55,5.45,0,2.19-1.27,2.55-2,2.55-2,0-3.14-3.48-3.14-5.5C157.79,92.07,158,90.36,159.4,90.36Zm3.19,8.24a1.81,1.81,0,0,0,1.56-2.11c0-2.79-2.43-5.69-3.87-8.12-.4.46-.79,1-1.41,1a.86.86,0,0,1-.89-.88.81.81,0,0,1,.74-.84c.51,0,.63.28.89.52a1.16,1.16,0,0,0,.39-.38,5.15,5.15,0,0,1-.39-2c0-1.08.72-3,2.38-3a1.41,1.41,0,0,1,1.58,1.44.86.86,0,0,1-.74.81.83.83,0,0,1-.89-.81,3.59,3.59,0,0,1,.17-.72.39.39,0,0,0-.36-.27c-1,0-1.42,1.35-1.42,2.21a2.65,2.65,0,0,0,.29,1.27A3.45,3.45,0,0,1,161.87,85c0,.27-.08.58-.08.82,0,1.27,1,2.06,1.9,3.22a6.85,6.85,0,0,1,1.83,3.81c0,.22-.05.22-.05.22a10.24,10.24,0,0,0-1-2.09c-.82-1.2-2-2.35-2.42-3.14a3.25,3.25,0,0,1-.6-2,3,3,0,0,0-.53,1.46c1.82,2.76,4.65,5.67,4.65,9,0,.72-.26,2.76-2.35,2.76-.33,0-.81-.12-.86-.34C162.35,98.65,162.56,98.6,162.59,98.6ZM159.85,95c.91,1.71,1.49,2.41,1.85,2.41s.48-.17.48-.51a11.54,11.54,0,0,0-1.3-3.24c-.84-1.51-1.48-2.5-2.11-2.5-.31.08-.33.41-.33.6C158.44,92.24,158.77,93,159.85,95Zm3.24-9.64a.62.62,0,0,1,.1.24A4.93,4.93,0,0,0,164.27,88a5.07,5.07,0,0,1,1.25,2.47c0,.19-.05.31-.12.31-.65-2-2.43-2.78-2.43-4.44A2.36,2.36,0,0,1,163.09,85.4Zm1.63-1.23c.08,0,.2,0,.2.15s-.63.07-.63.62c0,1.08,1,1.85,1,2.88,0,0,0,.26-.2.26-.16-1-1.17-1.32-1.17-2.85C163.91,84.72,164.29,84.17,164.72,84.17Z" transform="translate(-53.46 -82.73)"/><path d="M168.25,98.86c-.17,0-.29-.07-.29-.31v-15c0-.14,0-.26.24-.26h17.55c.17,0,.21.12.21.26V98.69c0,.17-.11.17-.28.17Zm6.41-.91a2.14,2.14,0,0,0,2.16-2.11,2.57,2.57,0,0,0-2.26-2.74A1.53,1.53,0,0,0,173,94.52c0,.79.39,1,.87,1a.59.59,0,0,0,.6-.6c0-.57-.63-.67-.63-.74s.2-.22.68-.22A1.88,1.88,0,0,1,176.15,96a1.25,1.25,0,0,1-1.25,1.22c-1.66,0-2.54-2.16-2.54-3.67a14.22,14.22,0,0,1,.26-3.17.51.51,0,0,0-.05-.17,5.88,5.88,0,0,0-3.29,3.39,5.5,5.5,0,0,0,.94,1.41c.22-.45-.05-2.32,1.39-3.41l.07,0s0,0,0,.1a10,10,0,0,0-.17,2C171.56,95.84,172.52,98,174.66,98Zm0-7.92a25,25,0,0,1,2.78,4.13c.1.19.12.24.12.31v1.27a19.5,19.5,0,0,0,2.18-1.58c-.4-.22-1.15-.48-1.15-.6s.1-2.72.17-2.72c.34.48,1.3,3.77,3.22,3.77a.67.67,0,0,0,.67-.69.58.58,0,0,0-.55-.56c-.46,0-.51.39-.63.39s-.57-.65-.86-1.1c-1.08-1.73-1.13-3.34-2.59-3.34a1.57,1.57,0,0,0-1.66,1.41l-.1-.12a7.37,7.37,0,0,1-.4-1.6c0-.58.72-.7.72-1.52A.53.53,0,0,0,176,87a.4.4,0,0,0-.43.38c0,.29.21.34.21.48s-2.42,1.82-2.42,1.9S174.52,89.88,174.64,90Zm3.09.12c.27,0,.34.12.34.12,0,.55-.19,2.18-.19,2.73a3,3,0,0,1-.89-1.94C177,90.68,177.28,90.15,177.73,90.15Zm5.19,1.44c.6,0,1.53-.19,1.53-1a.63.63,0,0,0-.55-.67c-.34,0-.53.14-.53.48,0,.07,0,.16,0,.24s-.34.24-.48.24a3.84,3.84,0,0,1-3.15-2.57c0-.17,1.49-.39,1.47-.39.24.6.62.89.88.89a.6.6,0,0,0,0-1.2c-.21,0-.29.15-.36.15a19.3,19.3,0,0,1-.84-3.65c0-.1-.33-.1-.52-.1-1.59,0-2,1.83-2,2.83a5.13,5.13,0,0,0,2.09,3.89A4,4,0,0,0,182.92,91.59Zm-3.63-5.14c0-.69.41-1.68.75-1.68.14,0,.19.31.33.89a13.63,13.63,0,0,0,.6,1.68,5.59,5.59,0,0,0-1.49.31S179.29,87.41,179.29,86.45Z" transform="translate(-53.46 -82.73)"/><path d="M189.71,88.25l.91-.45,1,9.67-.79.36-.17-1.61-1.25.55-.19,1.78a6.45,6.45,0,0,1-.82.38C188.36,98.79,188.51,97.76,189.71,88.25Zm-.94-.33c.17,0,.58-.77,1.15-1a1.64,1.64,0,0,1,.77-.16,2.17,2.17,0,0,1,.36,0c0-.14-.45-.43-1.05-.48a1.41,1.41,0,0,0-1.42,1.18.54.54,0,0,0,.12.43Zm1.73,7.44-.41-4.9-.57,5.35Zm-.89-11.6a2.52,2.52,0,0,0,2,2.38c.05,0,.08,0,.08,0a2.58,2.58,0,0,0-1.85-2.49C189.64,83.6,189.61,83.74,189.61,83.76Zm4.75.56a.72.72,0,0,0-.72-.41,1.49,1.49,0,0,0-1.46,1.58.59.59,0,0,0,.1.39,2.17,2.17,0,0,1,.67-.94C193.45,84.56,194.32,84.58,194.36,84.32Zm-2.11,2.49,1.18-.57,1.2,7.56V85.61l.84-.48,0,10.25-1.29.7-1.06-6.51v7l-.84.48Zm1.3,11.26a.73.73,0,0,0,.72.41,1.5,1.5,0,0,0,1.46-1.59.61.61,0,0,0-.09-.38,2.18,2.18,0,0,1-.68.94C194.46,97.83,193.6,97.81,193.55,98.07Zm4.75.55a2.51,2.51,0,0,0-2-2.37c-.05,0-.07,0-.07,0a2.58,2.58,0,0,0,1.84,2.5C198.28,98.79,198.3,98.65,198.3,98.62Zm-1.87-14.09v5.16c0,2.57,0,5.14,0,5.14s1.52-.75,2.14-1.08.75-1.61.75-2.55V85.61c0-.81-.15-1.85-1-1.85a1,1,0,0,0-.36,0Zm2.71,9.94c-.17,0-.58.77-1.15,1a1.64,1.64,0,0,1-.77.17,2.17,2.17,0,0,1-.36,0c0,.14.46.43,1.06.47A1.38,1.38,0,0,0,199.33,95c0-.22,0-.34-.12-.43Zm-1.77-9.12a1,1,0,0,1,.59-.27c.29,0,.36.48.36,1v5.61a1.26,1.26,0,0,1-1,1.42Z" transform="translate(-53.46 -82.73)"/><path d="M206.27,93.46c.17,0,.26.05.26.07s-.22.24-.43.27a5.08,5.08,0,0,0-3.29,2.35c-.38.72-.55,1.87-.67,1.87s-.41-.29-.41-1.1C201.73,94.32,205.64,93.46,206.27,93.46Zm-4.49-3.1a.3.3,0,0,1,.21.08,3.79,3.79,0,0,0,2.62,2,1.9,1.9,0,0,1,.53.09c0,.31-.91.58-1.54.58-1.24,0-1.82-1.59-1.82-2.5ZM203,88.68c-.1,0-.12-.07-.12-.16,0-.56,5.49-5,13-5,8.48,0,12.1,3.2,16.23,3.2a8,8,0,0,0,1.41-.32c.08,0,.1,0,.1.15,0,1-1.2,1.32-2,1.32-3.14,0-8-3.27-15.82-3.27A24.07,24.07,0,0,0,203,88.68Zm1.05,8.65c0-1.23.89-2.19,1.44-2.19l.08.07a3.72,3.72,0,0,0-.89,2.28,12.48,12.48,0,0,0,.45,2s0,.1,0,.1A4.08,4.08,0,0,1,204.08,97.33Zm11.86-.73c4.2,0,7.2,1.54,10.1,1.54.44,0,1.23-.12,1.4-.12s.14,0,.14,0c0,.38-1.1.89-2.37.89-2.55,0-6.29-1.23-9.89-1.23a24.88,24.88,0,0,0-8.77,1.9c-.09,0-.11-.07-.11-.17C206.44,98.93,210.66,96.6,215.94,96.6Zm-9.29-.6a1.48,1.48,0,0,0,.82-1.51c0-2.61-.05-4.51-.05-6.67a9.59,9.59,0,0,1,1.92-.6s0,0,0,.07c1.75,3.53,2.71,5.36,3.21,6.29a.88.88,0,0,0,1,.55c.08,0,.12.29.12,1a18.15,18.15,0,0,0-3.33.72l-.22-.87s.91-.28.91-.84l-.6-1.27-1.73.58v.74c0,.86.75.86,1.11.86l.22.87s-1.23.43-3.15,1.32ZM210,92l-1.44-3.29c0,.94.05,2.52.05,3.77Zm8.33,3.12c-.82-2.21-1.94-4.73-2.81-6.84l.29,4.3c0,.88.29,1.27,1,1.27l0,1.13c-.36,0-.72,0-1.16,0a8,8,0,0,0-1.53.14v-.91c0-.19.6-.12.6-.89,0-1.87-.22-3.36-.31-5.37,0-.34-.17-.51-.6-.51a4.6,4.6,0,0,0-.63.07,9.55,9.55,0,0,1-.14-1,8.52,8.52,0,0,1,2.28-.29c.26,0,.55,0,.86,0l2.16,5.64c0-.84.27-3,.27-3.91,0-.48-.39-.65-.82-.72l0-1a17.4,17.4,0,0,1,3.21.39l-.16,1s0,.07-.05.07c-.46,0-.79,0-.84.41-.19,1.92-.29,3.4-.58,7.2Zm1.73.22v-.07l.17-.87c.5-.07,1.1-.07,1.32-.5.31-.72,1.2-4,1.46-5.14,0-.17.07-.29.07-.41,0-.77-.84-.57-.84-.81l.17-.68a32.66,32.66,0,0,1,3.79,1c1.56.55,2.45,1.44,2.45,2.71,0,1.89-1.27,5.9-3.34,5.9C223.86,96.53,221.7,95.69,220.07,95.36Zm4.41,0a1.61,1.61,0,0,0,1.35-.8A11.42,11.42,0,0,0,227,90.48v-.12a1.63,1.63,0,0,0-1.56-1.56c-.44,0-.63.53-.84,1.13s-1.27,4.13-1.27,4.63S224.05,95.36,224.48,95.36Zm5,1.75c0-1.54-.68-1.75-.68-2.28a2.27,2.27,0,0,1,1.69,1.85,1.7,1.7,0,0,1-1.28,1.85C229.21,98.09,229.48,97.61,229.48,97.11Zm2-2.76a4.69,4.69,0,0,0,3-1.06s0,0,0,.1a2.47,2.47,0,0,1-2.57,1.7,4.13,4.13,0,0,1-2.78-1.2A20.34,20.34,0,0,0,231.47,94.35Zm.05-4.42a1.56,1.56,0,0,1,.45,1.18,1.58,1.58,0,0,1-1.65,1.75c-.29,0-1.06-.1-1.06-.21C231.47,92,231.21,89.91,231.52,89.93Z" transform="translate(-53.46 -82.73)"/></svg>